<?xml version="1.0" encoding="UTF-8" standalone="no"?>
<!-- Created with Inkscape (http://www.inkscape.org/) -->

<svg
   xmlns:dc="http://purl.org/dc/elements/1.1/"
   xmlns:cc="http://creativecommons.org/ns#"
   xmlns:rdf="http://www.w3.org/1999/02/22-rdf-syntax-ns#"
   xmlns:svg="http://www.w3.org/2000/svg"
   xmlns="http://www.w3.org/2000/svg"
   xmlns:sodipodi="http://sodipodi.sourceforge.net/DTD/sodipodi-0.dtd"
   xmlns:inkscape="http://www.inkscape.org/namespaces/inkscape"
   id="svg2"
   version="1.1"
   inkscape:version="0.91 r13725"
   xml:space="preserve"
   width="462.54004"
   height="810"
   viewBox="0 0 462.54004 810"
   sodipodi:docname="publicdomainq-man-physical_education_teacher.svg"
   inkscape:export-filename="/media/sdb1/_GRAFIKA/Publicdomainq/lidi/publicdomainq-man-physical_education_teacher.png"
   inkscape:export-xdpi="88.984169"
   inkscape:export-ydpi="88.984169"><title
     id="title7699">Man - physical education teacher</title><metadata
     id="metadata8"><rdf:RDF><cc:Work
         rdf:about=""><dc:format>image/svg+xml</dc:format><dc:type
           rdf:resource="http://purl.org/dc/dcmitype/StillImage" /><dc:title>Man - physical education teacher</dc:title><cc:license
           rdf:resource="http://creativecommons.org/publicdomain/zero/1.0/" /><dc:subject><rdf:Bag><rdf:li>physical education</rdf:li><rdf:li>teacher</rdf:li><rdf:li>school</rdf:li><rdf:li>man</rdf:li><rdf:li>male</rdf:li><rdf:li>physical</rdf:li><rdf:li>training</rdf:li><rdf:li>exercise</rdf:li><rdf:li>health</rdf:li><rdf:li>sport</rdf:li><rdf:li>train</rdf:li><rdf:li>sweat</rdf:li><rdf:li>whistle</rdf:li><rdf:li>publicdomainq.net</rdf:li></rdf:Bag></dc:subject><dc:description>This image was adapted from a picture posted to publicdomainq.net. All of the images on these sites are in the public domain i.e. CC0. This site is only in Japanese but can be easily navigated with Google Translate.</dc:description></cc:Work><cc:License
         rdf:about="http://creativecommons.org/publicdomain/zero/1.0/"><cc:permits
           rdf:resource="http://creativecommons.org/ns#Reproduction" /><cc:permits
           rdf:resource="http://creativecommons.org/ns#Distribution" /><cc:permits
           rdf:resource="http://creativecommons.org/ns#DerivativeWorks" /></cc:License></rdf:RDF></metadata><defs
     id="defs6"><clipPath
       clipPathUnits="userSpaceOnUse"
       id="clipPath58"><path
         d="M 248.324,1461.59 C 126.266,1426.93 127.109,1220.15 127.109,1220.15 128.004,1110.01 139.297,920.891 208.629,851.066 277.488,781.75 343.082,748.82 400.598,733.75 c 0,0 71.066,-21.051 138.136,4.621 56.399,18.891 119.641,56.09 183.711,129.902 70.293,80.997 62.305,300.467 54.805,400.977 -2.207,29.79 -19.727,63.35 -27.156,71.62 -108.156,120.31 -110.422,196.84 -110.422,196.84 l -14.07,-18.1 c -25.891,-27.68 -74.395,-55.98 -164.289,-72.31 0,0 28.632,110.96 53.828,131.22 0,0 -108.278,-147.61 -291.328,-187.67 0,0 4.953,25.09 18.875,58.15 l 5.636,12.59 z"
         id="path60"
         inkscape:connector-curvature="0" /></clipPath><linearGradient
       x1="0"
       y1="0"
       x2="1"
       y2="0"
       gradientUnits="userSpaceOnUse"
       gradientTransform="matrix(-1.44e-5,329.108,329.108,1.44e-5,454.57,998.091)"
       spreadMethod="pad"
       id="linearGradient62"><stop
         style="stop-opacity:1;stop-color:#fcd0b4"
         offset="0"
         id="stop64" /><stop
         style="stop-opacity:1;stop-color:#f7918c"
         offset="1"
         id="stop66" /></linearGradient></defs><sodipodi:namedview
     pagecolor="#ffffff"
     bordercolor="#666666"
     borderopacity="1"
     objecttolerance="10"
     gridtolerance="10"
     guidetolerance="10"
     inkscape:pageopacity="0"
     inkscape:pageshadow="2"
     inkscape:window-width="1920"
     inkscape:window-height="1125"
     id="namedview4"
     showgrid="false"
     inkscape:zoom="0.87601236"
     inkscape:cx="544.93137"
     inkscape:cy="358.91916"
     inkscape:window-x="0"
     inkscape:window-y="0"
     inkscape:window-maximized="1"
     inkscape:current-layer="svg2"
     fit-margin-top="5"
     fit-margin-left="5"
     fit-margin-bottom="5"
     fit-margin-right="5" /><g
     id="g12"
     transform="matrix(0.42374034,0,0,-0.42374034,5.0011642,804.95173)"><path
       d="m 70.8008,581.352 c 0,0 44.7192,25.367 55.9182,28.418 39.453,10.66 304.824,110.152 304.824,110.152"
       style="fill:#f2f593;fill-opacity:1;fill-rule:nonzero;stroke:none"
       id="path14"
       inkscape:connector-curvature="0" /><path
       d="m 697.59,784.57 c 0,0 40.828,-51.679 63.25,-110.761 C 835.715,646.23 920.559,615.43 941.531,609.77 1004.27,592.762 1051.4,427.379 1056.24,8 L 7.23828,8 C 11.9219,113.84 21.4141,301.941 30.918,347.07 c 13.3281,63.321 31.6718,171.66 45,200 13.3281,28.321 33.27,57.051 50.801,62.7 10.117,3.242 111.726,39.429 195.847,69.468 14.18,51.153 60.024,103.653 60.024,103.653 l 315,1.679"
       style="fill:#6eb5e6;fill-opacity:1;fill-rule:nonzero;stroke:none"
       id="path16"
       inkscape:connector-curvature="0" /><path
       d="m 684.246,551.641 c 108.75,-47.5 193.75,-130 258.344,-217.911 L 882.59,8 l -695,0 -58.344,344.051 c 0,0 101.543,138.828 254.992,209.91 l -79.992,23.43 c 0,0 -2.5,61.25 17.5,101.25 20,40 60.844,96.25 60.844,96.25 l 315,1.679 c 0,0 41.656,-42.929 56.656,-99.179 9.797,-36.731 21.25,-100 21.25,-100 0,0 -111.851,-17.403 -91.25,-33.75"
       style="fill:#bfeafb;fill-opacity:1;fill-rule:nonzero;stroke:none"
       id="path18"
       inkscape:connector-curvature="0" /><path
       d="m 930.637,1145.14 -778.442,0 -8.308,138.54 c 0,0 -36.348,81.71 -36.172,207.09 0.129,71.69 24.305,130.87 89.363,196.99 82.793,84.17 263.828,181.64 416.352,191.5 127.808,8.27 181.597,-74.39 155.41,-126.74 0,0 61.316,11.02 125.215,-45.46 47.715,-42.17 78.386,-144.6 78.504,-216.29 0.183,-125.38 -36.172,-207.09 -36.172,-207.09 l -5.75,-138.54"
       style="fill:#3c2221;fill-opacity:1;fill-rule:nonzero;stroke:none"
       id="path20"
       inkscape:connector-curvature="0" /><path
       d="m 957.043,1579.55 c -41.047,76.29 -99.047,125.31 -169.289,146.77 -21.504,6.58 -7.625,25.76 -7.625,25.76 l 16.219,0.47 c 23.847,-2.54 60.285,-12.42 97.707,-45.49 18.211,-16.1 33.914,-41 46.406,-69.6 l 16.582,-57.91"
       style="fill:#87575c;fill-opacity:1;fill-rule:nonzero;stroke:none"
       id="path22"
       inkscape:connector-curvature="0" /><path
       d="m 166.477,1242.02 c 0,0 -36.372,81.71 -36.172,207.07 0.117,71.68 24.304,130.87 89.351,197.01 82.793,84.15 260.371,184.32 412.336,200.83 71.106,7.73 109.199,-11.59 141.758,-52.59 -9.336,45.35 -63.594,91.18 -160.32,84.92 -152.524,-9.86 -333.559,-107.33 -416.352,-191.5 -65.058,-66.12 -89.234,-125.3 -89.363,-196.99 -0.176,-125.38 36.172,-207.09 36.172,-207.09 l 8.308,-138.54 20.078,0 -5.796,96.88"
       style="fill:#87575c;fill-opacity:1;fill-rule:nonzero;stroke:none"
       id="path24"
       inkscape:connector-curvature="0" /><path
       d="m 430.957,1239.77 c 0,-33.32 -21.121,-60.35 -47.18,-60.35 -26.074,0 -47.195,27.03 -47.195,60.35 0,33.32 21.121,60.35 47.195,60.35 26.059,0 47.18,-27.03 47.18,-60.35"
       style="fill:#231f20;fill-opacity:1;fill-rule:nonzero;stroke:none"
       id="path26"
       inkscape:connector-curvature="0" /><path
       d="m 889.363,1255.12 c 0,0 12.871,36.52 45.547,27.83 40.617,-10.78 68.96,-71.44 30.246,-163.12 -35.676,-84.49 -74.953,-99.08 -99.16,-86.7"
       style="fill:#fcd0b4;fill-opacity:1;fill-rule:nonzero;stroke:none"
       id="path28"
       inkscape:connector-curvature="0" /><path
       d="m 888.113,1180.82 c -9.976,-34.96 -25.769,-80.05 -6.226,-88.39 19.551,-8.36 47.051,21.05 57.051,55.99 10.957,38.21 14.265,65.72 -5.278,74.06 -19.558,8.36 -38.113,-15.64 -45.547,-41.66"
       style="fill:#de9284;fill-opacity:1;fill-rule:nonzero;stroke:none"
       id="path30"
       inkscape:connector-curvature="0" /><path
       d="m 183.098,1255.12 c 0,0 -12.895,36.52 -45.547,27.83 -40.6369,-10.78 -68.9572,-71.44 -30.254,-163.12 35.672,-84.49 74.961,-99.08 99.156,-86.7"
       style="fill:#fcd0b4;fill-opacity:1;fill-rule:nonzero;stroke:none"
       id="path32"
       inkscape:connector-curvature="0" /><path
       d="m 184.336,1180.82 c 9.988,-34.96 25.769,-80.05 6.223,-88.39 -19.536,-8.36 -47.036,21.05 -57.051,55.99 -10.942,38.21 -14.262,65.72 5.293,74.06 19.539,8.36 38.101,-15.64 45.535,-41.66"
       style="fill:#de9284;fill-opacity:1;fill-rule:nonzero;stroke:none"
       id="path34"
       inkscape:connector-curvature="0" /><path
       d="m 423.621,758.07 6.313,-74.281 60.918,-85.84 44.628,-47.258 c 0,0 78.79,83.43 87.188,96.93 8.395,13.52 19.41,46.289 21.52,56.43 2.113,10.109 3.167,52.07 3.167,52.07 l -223.734,1.949"
       style="fill:#fbc8ad;fill-opacity:1;fill-rule:nonzero;stroke:none"
       id="path36"
       inkscape:connector-curvature="0" /><path
       d="m 445.645,762.051 202.683,10.488 -2.832,-35.898 c 0,0 -139.375,-96.871 -216.25,-23.75 0,0 -4.949,29.531 -4.101,41.41 0.839,11.871 20.5,7.75 20.5,7.75"
       style="fill:#d19586;fill-opacity:1;fill-rule:nonzero;stroke:none"
       id="path38"
       inkscape:connector-curvature="0" /><path
       d="m 865.625,1445.73 c 0,0 32.715,-189.18 16.055,-324.07 C 867.688,1008.29 828.586,894.125 764.043,840.391 703.301,789.852 618.523,738.789 536.223,738.789 c -83.149,0 -164.731,51.063 -225.469,101.602 -64.57,53.734 -105.988,167.899 -119.984,281.269 -16.668,134.89 16.066,324.07 16.066,324.07 0,0 93.508,178.67 278.562,222.75 0,0 -126.238,-74.39 -173.574,-169.45 0,0 220.91,161.17 404.531,169.45 0,0 101.653,-50.98 149.27,-222.75"
       style="fill:#fcd0b4;fill-opacity:1;fill-rule:nonzero;stroke:none"
       id="path40"
       inkscape:connector-curvature="0" /><path
       d="m 299.055,1236.96 c 0,-44.92 33.394,-81.35 74.566,-81.35 41.203,0 74.621,36.43 74.621,81.35 0,44.92 -14.336,95.29 -74.59,95.29 -60.261,0 -74.597,-50.37 -74.597,-95.29"
       style="fill:#ffffff;fill-opacity:1;fill-rule:nonzero;stroke:none"
       id="path42"
       inkscape:connector-curvature="0" /><path
       d="m 773.035,1236.96 c 0,-44.92 -33.394,-81.35 -74.578,-81.35 -41.199,0 -74.59,36.43 -74.59,81.35 0,44.92 14.324,95.29 74.578,95.29 60.266,0 74.59,-50.37 74.59,-95.29"
       style="fill:#ffffff;fill-opacity:1;fill-rule:nonzero;stroke:none"
       id="path44"
       inkscape:connector-curvature="0" /><path
       d="m 575.918,1064.44 c 0,-8.52 -18.035,-15.43 -40.266,-15.43 -22.254,0 -40.269,6.91 -40.269,15.43 0,8.55 18.015,15.45 40.269,15.45 22.231,0 40.266,-6.9 40.266,-15.45"
       style="fill:#c57e7b;fill-opacity:1;fill-rule:nonzero;stroke:none"
       id="path46"
       inkscape:connector-curvature="0" /><path
       d="m 433.77,1294.01 c -7.723,10.31 -28.332,46.35 -70.809,37.34 -42.492,-9.02 -56.652,-36.05 -60.52,-55.37 0,0 45.071,59.24 131.329,18.03"
       style="fill:#d8e2f5;fill-opacity:1;fill-rule:nonzero;stroke:none"
       id="path48"
       inkscape:connector-curvature="0" /><path
       d="m 638.477,1294.01 c 7.722,10.31 28.332,46.35 70.82,37.34 42.48,-9.02 56.648,-36.05 60.508,-55.37 0,0 -45.059,59.24 -131.328,18.03"
       style="fill:#d8e2f5;fill-opacity:1;fill-rule:nonzero;stroke:none"
       id="path50"
       inkscape:connector-curvature="0" /><path
       d="m 350.012,1126.59 c 0,-14.13 -31.328,-25.55 -69.992,-25.55 -38.641,0 -69.961,11.42 -69.961,25.55 0,14.1 31.32,25.52 69.961,25.52 38.664,0 69.992,-11.42 69.992,-25.52"
       style="fill:#f7939c;fill-opacity:1;fill-rule:nonzero;stroke:none"
       id="path52"
       inkscape:connector-curvature="0" /><path
       d="m 862.383,1126.59 c 0,-14.13 -31.32,-25.55 -69.961,-25.55 -38.652,0 -69.981,11.42 -69.981,25.55 0,14.1 31.329,25.52 69.981,25.52 38.641,0 69.961,-11.42 69.961,-25.52"
       style="fill:#f7939c;fill-opacity:1;fill-rule:nonzero;stroke:none"
       id="path54"
       inkscape:connector-curvature="0" /><path
       d="m 402.617,982.563 c 27.461,-12.872 88.418,-12.071 132.188,-12.071 l -0.86,0 c 43.77,0 104.707,-0.801 132.188,12.071 0,0 -42.238,-145.083 -133.059,-145.083 -90.816,0 -130.457,145.083 -130.457,145.083"
       style="fill:#ed5d84;fill-opacity:1;fill-rule:nonzero;stroke:none"
       id="path56"
       inkscape:connector-curvature="0" /><path
       d="m 540.32,973.676 c -38.355,0 -74.226,1.504 -105.23,4.082 -2.277,-2.285 -3.606,-4.668 -3.606,-7.129 0,-15.176 45.911,-27.481 102.532,-27.481 56.629,0 102.539,12.305 102.539,27.481 0,2.148 -1.008,4.219 -2.746,6.23 -28.223,-2.011 -59.883,-3.183 -93.489,-3.183"
       style="fill:#ffffff;fill-opacity:1;fill-rule:nonzero;stroke:none"
       id="path58"
       inkscape:connector-curvature="0" /><path
       d="m 485.742,524.91 c 0,0 -14.316,52.442 -54.031,57.219 -39.731,4.769 -135.09,3.191 -135.09,3.191 0,0 104.895,-76.308 189.121,-60.41"
       style="fill:#43669d;fill-opacity:1;fill-rule:nonzero;stroke:none"
       id="path60-3"
       inkscape:connector-curvature="0" /><path
       d="m 587.844,518.25 c 0,0 15.711,45.719 54.031,57.199 66.543,19.942 135.09,3.192 135.09,3.192 0,0 -104.895,-76.289 -189.121,-60.391"
       style="fill:#43669d;fill-opacity:1;fill-rule:nonzero;stroke:none"
       id="path62"
       inkscape:connector-curvature="0" /><path
       d="m 443.191,673.379 c 0,0 43.555,-19.918 92.637,-19.918 49.106,0 98.188,29.371 98.188,29.371 0,0 -14.575,-32.531 -38.887,-60.422 -21.02,-24.09 -55.395,-78.398 -55.395,-78.398 0,0 -67.007,81.929 -80.371,99.468 -15.679,20.59 -16.172,29.899 -16.172,29.899"
       style="fill:#ffffff;fill-opacity:1;fill-rule:nonzero;stroke:none"
       id="path64"
       inkscape:connector-curvature="0" /><path
       d="M 983.738,566.801 882.59,8"
       style="fill:none;stroke:#231f20;stroke-width:14;stroke-linecap:round;stroke-linejoin:round;stroke-miterlimit:10;stroke-dasharray:none;stroke-opacity:1"
       id="path66"
       inkscape:connector-curvature="0" /><path
       d="m 1006.27,372.27 c 0,0 -21.575,-114.649 -87.04,-171.899"
       style="fill:none;stroke:#231f20;stroke-width:14;stroke-linecap:round;stroke-linejoin:round;stroke-miterlimit:10;stroke-dasharray:none;stroke-opacity:1"
       id="path68"
       inkscape:connector-curvature="0" /><path
       d="M 760.84,674.531 C 840.176,645.711 925.906,615.059 945.461,609.77 1007.46,592.949 1054.2,356.648 1059.96,8"
       style="fill:none;stroke:#231f20;stroke-width:16;stroke-linecap:round;stroke-linejoin:round;stroke-miterlimit:10;stroke-dasharray:none;stroke-opacity:1"
       id="path70"
       inkscape:connector-curvature="0" /><path
       d="M 84.1602,566.801 185.254,8"
       style="fill:none;stroke:#231f20;stroke-width:14;stroke-linecap:round;stroke-linejoin:round;stroke-miterlimit:10;stroke-dasharray:none;stroke-opacity:1"
       id="path72"
       inkscape:connector-curvature="0" /><path
       d="m 66.6328,372.27 c 0,0 21.5703,-114.649 87.0392,-171.899"
       style="fill:none;stroke:#231f20;stroke-width:14;stroke-linecap:round;stroke-linejoin:round;stroke-miterlimit:10;stroke-dasharray:none;stroke-opacity:1"
       id="path74"
       inkscape:connector-curvature="0" /><path
       d="M 321.418,679.77 C 238.379,649.512 143.184,615.371 122.441,609.77 60.6133,593.012 13.9727,354.949 8,8"
       style="fill:none;stroke:#231f20;stroke-width:16;stroke-linecap:round;stroke-linejoin:round;stroke-miterlimit:10;stroke-dasharray:none;stroke-opacity:1"
       id="path76"
       inkscape:connector-curvature="0" /><path
       d="M 109.988,431.66 186.543,8"
       style="fill:none;stroke:#231f20;stroke-width:14;stroke-linecap:round;stroke-linejoin:round;stroke-miterlimit:10;stroke-dasharray:none;stroke-opacity:1"
       id="path78"
       inkscape:connector-curvature="0" /><path
       d="m 450.723,1373.19 c -3.551,-5.14 -27.95,6.71 -55.578,13.44 -13.758,3.4 -28.141,5.2 -40.125,4.53 -12.032,-0.56 -21.579,-3.27 -27.571,-5.27 -23.754,-7.19 -43.937,-20.19 -54.226,-14.07 -5.125,3.15 -5.66,12.88 0.738,24.49 6.191,11.5 20.285,24.87 39.949,31.19 9.641,3.27 25.66,5.91 42.903,3.93 17.269,-1.78 35.082,-8.01 49.757,-16.05 29.559,-16.24 47.547,-37.6 44.153,-42.19"
       style="fill:#231f20;fill-opacity:1;fill-rule:nonzero;stroke:none"
       id="path80"
       inkscape:connector-curvature="0" /><path
       d="m 621.367,1373.19 c -3.387,4.59 14.602,25.95 44.153,42.19 14.675,8.03 32.488,14.27 49.761,16.05 17.239,1.98 33.266,-0.66 42.895,-3.93 19.668,-6.32 33.765,-19.68 39.949,-31.19 6.395,-11.61 5.867,-21.35 0.742,-24.49 -10.293,-6.12 -30.469,6.88 -54.219,14.07 -5.996,2 -15.539,4.71 -27.578,5.27 -11.98,0.66 -26.367,-1.13 -40.129,-4.53 -27.625,-6.74 -52.019,-18.58 -55.574,-13.44"
       style="fill:#231f20;fill-opacity:1;fill-rule:nonzero;stroke:none"
       id="path82"
       inkscape:connector-curvature="0" /><path
       d="m 443.645,1275.96 c 0,0 -21.133,67.52 -90.161,55.14 -55.781,-10.02 -56.343,-81.31 -56.343,-81.31"
       style="fill:none;stroke:#231f20;stroke-width:16;stroke-linecap:round;stroke-linejoin:round;stroke-miterlimit:10;stroke-dasharray:none;stroke-opacity:1"
       id="path84"
       inkscape:connector-curvature="0" /><path
       d="m 440.129,759.59 c -47.988,18.969 -94.941,48.808 -129.375,80.801 -62.727,58.285 -105.988,167.899 -119.984,281.269 -16.668,134.89 16.066,324.07 16.066,324.07 0,0 93.508,178.67 278.562,222.75 0,0 -126.238,-74.39 -173.574,-169.45 0,0 220.91,161.17 404.531,169.45 0,0 101.653,-50.98 149.27,-222.75 0,0 32.715,-189.18 16.055,-324.07 C 867.688,1008.29 831.145,902.172 764.043,840.391 705.852,786.84 613.379,738.789 536.223,738.789 c -30.078,0 -63.332,7.871 -96.094,20.801"
       style="fill:none;stroke:#231f20;stroke-width:16;stroke-linecap:round;stroke-linejoin:round;stroke-miterlimit:10;stroke-dasharray:none;stroke-opacity:1"
       id="path86"
       inkscape:connector-curvature="0" /><path
       d="m 628.445,1275.96 c 0,0 21.145,67.52 90.168,55.14 55.782,-10.02 56.336,-81.31 56.336,-81.31"
       style="fill:none;stroke:#231f20;stroke-width:16;stroke-linecap:round;stroke-linejoin:round;stroke-miterlimit:10;stroke-dasharray:none;stroke-opacity:1"
       id="path88"
       inkscape:connector-curvature="0" /><path
       d="m 887.52,1255.12 c 0,0 14.714,36.52 47.39,27.83 40.617,-10.78 68.96,-71.44 30.246,-163.12 -33.164,-78.58 -69.453,-96.7 -93.855,-88.89"
       style="fill:none;stroke:#231f20;stroke-width:16;stroke-linecap:round;stroke-linejoin:round;stroke-miterlimit:10;stroke-dasharray:none;stroke-opacity:1"
       id="path90"
       inkscape:connector-curvature="0" /><path
       d="m 943.563,1233.99 c 0,0 -41.329,6.68 -58.165,-71.49"
       style="fill:none;stroke:#231f20;stroke-width:16;stroke-linecap:round;stroke-linejoin:round;stroke-miterlimit:10;stroke-dasharray:none;stroke-opacity:1"
       id="path92"
       inkscape:connector-curvature="0" /><path
       d="m 184.934,1255.12 c 0,0 -14.731,36.52 -47.383,27.83 -40.6369,-10.78 -68.9572,-71.44 -30.254,-163.12 33.172,-78.58 69.461,-96.7 93.863,-88.89"
       style="fill:none;stroke:#231f20;stroke-width:16;stroke-linecap:round;stroke-linejoin:round;stroke-miterlimit:10;stroke-dasharray:none;stroke-opacity:1"
       id="path94"
       inkscape:connector-curvature="0" /><path
       d="m 128.887,1233.99 c 0,0 41.316,6.68 58.164,-71.49"
       style="fill:none;stroke:#231f20;stroke-width:16;stroke-linecap:round;stroke-linejoin:round;stroke-miterlimit:10;stroke-dasharray:none;stroke-opacity:1"
       id="path96"
       inkscape:connector-curvature="0" /><path
       d="m 936.387,1283.68 c 0,0 36.355,81.71 36.172,207.09 -0.118,71.69 -30.789,174.12 -78.504,216.29 -63.899,56.48 -125.215,45.46 -125.215,45.46 26.187,52.35 -27.602,135.01 -155.41,126.74 -152.524,-9.86 -333.559,-107.33 -416.352,-191.5 -65.058,-66.12 -89.234,-125.3 -89.363,-196.99 -0.176,-125.38 34.883,-205.08 34.883,-205.08"
       style="fill:none;stroke:#231f20;stroke-width:16;stroke-linecap:round;stroke-linejoin:round;stroke-miterlimit:10;stroke-dasharray:none;stroke-opacity:1"
       id="path98"
       inkscape:connector-curvature="0" /><path
       d="m 535.652,836.719 c -83.394,0 -133.035,145.844 -133.035,145.844 0,0 44.485,-12.071 132.188,-12.071 87.715,0 131.328,12.071 131.328,12.071 0,0 -47.09,-145.844 -130.481,-145.844 z"
       style="fill:none;stroke:#231f20;stroke-width:14;stroke-linecap:round;stroke-linejoin:round;stroke-miterlimit:10;stroke-dasharray:none;stroke-opacity:1"
       id="path100"
       inkscape:connector-curvature="0" /><path
       d="m 430.957,1239.77 c 0,-32.05 -21.121,-58.05 -47.18,-58.05 -26.074,0 -47.195,26 -47.195,58.05 0,32.05 21.121,58.05 47.195,58.05 26.059,0 47.18,-26 47.18,-58.05"
       style="fill:#231f20;fill-opacity:1;fill-rule:nonzero;stroke:none"
       id="path102"
       inkscape:connector-curvature="0" /><path
       d="m 641.133,1239.77 c 0,-32.05 21.125,-58.05 47.187,-58.05 26.067,0 47.188,26 47.188,58.05 0,32.05 -21.121,58.05 -47.188,58.05 -26.062,0 -47.187,-26 -47.187,-58.05"
       style="fill:#231f20;fill-opacity:1;fill-rule:nonzero;stroke:none"
       id="path104"
       inkscape:connector-curvature="0" /><path
       d="m 426.094,1266.92 c 0,-6.97 -5.02,-12.6 -11.231,-12.6 -6.191,0 -11.218,5.63 -11.218,12.6 0,6.95 5.027,12.6 11.218,12.6 6.211,0 11.231,-5.65 11.231,-12.6"
       style="fill:#ffffff;fill-opacity:1;fill-rule:nonzero;stroke:none"
       id="path106"
       inkscape:connector-curvature="0" /><path
       d="m 731.25,1266.92 c 0,-6.97 -5.02,-12.6 -11.223,-12.6 -6.199,0 -11.226,5.63 -11.226,12.6 0,6.95 5.027,12.6 11.226,12.6 6.203,0 11.223,-5.65 11.223,-12.6"
       style="fill:#ffffff;fill-opacity:1;fill-rule:nonzero;stroke:none"
       id="path108"
       inkscape:connector-curvature="0" /><path
       d="M 647.566,763.52 C 648.816,732.93 644.57,676.141 603.352,632 576.25,602.969 553.938,571.02 539.148,546.309"
       style="fill:none;stroke:#231f20;stroke-width:16;stroke-linecap:round;stroke-linejoin:round;stroke-miterlimit:10;stroke-dasharray:none;stroke-opacity:1"
       id="path110"
       inkscape:connector-curvature="0" /><path
       d="m 383.391,785.648 c -11.321,-9.609 -22.93,-22.796 -33.52,-40.816 -32.156,-54.75 -45.016,-117.211 -50.105,-162.461 0,0 55.234,14.199 135.937,-5.019 33.391,-7.954 68.352,-63.582 68.352,-63.582"
       style="fill:none;stroke:#231f20;stroke-width:16;stroke-linecap:round;stroke-linejoin:round;stroke-miterlimit:10;stroke-dasharray:none;stroke-opacity:1"
       id="path112"
       inkscape:connector-curvature="0" /><path
       d="m 693.359,786.98 c 11.809,-9.73 24.012,-23.289 35.086,-42.148 32.153,-54.75 45.024,-117.211 50.11,-162.461 0,0 -55.235,14.199 -135.938,-5.019 C 609.23,569.398 574.27,513.77 574.27,513.77"
       style="fill:none;stroke:#231f20;stroke-width:16;stroke-linecap:round;stroke-linejoin:round;stroke-miterlimit:10;stroke-dasharray:none;stroke-opacity:1"
       id="path114"
       inkscape:connector-curvature="0" /><path
       d="m 424.871,762.891 c -1.578,-29.903 1.633,-85.52 44.016,-130.891 18.828,-20.199 47.871,-55.98 67.218,-86.16"
       style="fill:none;stroke:#231f20;stroke-width:16;stroke-linecap:round;stroke-linejoin:round;stroke-miterlimit:10;stroke-dasharray:none;stroke-opacity:1"
       id="path116"
       inkscape:connector-curvature="0" /><path
       d="m 443.191,673.379 c 0,0 43.555,-19.918 92.637,-19.918 49.106,0 95.07,23.359 95.07,23.359"
       style="fill:none;stroke:#231f20;stroke-width:14;stroke-linecap:round;stroke-linejoin:round;stroke-miterlimit:10;stroke-dasharray:none;stroke-opacity:1"
       id="path118"
       inkscape:connector-curvature="0" /><path
       d="m 681.746,584.141 c 0,0 -40,-252.36 -143.75,-344.86 -103.75,92.5 -143.75,344.86 -143.75,344.86"
       style="fill:none;stroke:#231f20;stroke-width:12;stroke-linecap:butt;stroke-linejoin:miter;stroke-miterlimit:10;stroke-dasharray:none;stroke-opacity:1"
       id="path120"
       inkscape:connector-curvature="0" /><path
       d="m 491.406,115.391 88.6055,0 0,136.918 -88.6055,0 0,-136.918 z"
       style="fill:#ef333c;fill-opacity:1;fill-rule:nonzero;stroke:none"
       id="path122"
       inkscape:connector-curvature="0" /><path
       d="m 491.406,115.391 88.6055,0 0,74.418 -88.6055,0 0,-74.418 z"
       style="fill:#cc2b32;fill-opacity:1;fill-rule:nonzero;stroke:none"
       id="path124"
       inkscape:connector-curvature="0" /><path
       d="m 491.406,115.391 88.6055,0 0,136.918 -88.6055,0 0,-136.918 z"
       style="fill:none;stroke:#231f20;stroke-width:10;stroke-linecap:round;stroke-linejoin:round;stroke-miterlimit:10;stroke-dasharray:none;stroke-opacity:1"
       id="path126"
       inkscape:connector-curvature="0" /><path
       d="m 511.543,212.191 48.3281,0 0,13.3203 -48.3281,0 0,-13.3203 z"
       style="fill:#641314;fill-opacity:1;fill-rule:nonzero;stroke:none"
       id="path128"
       inkscape:connector-curvature="0" /></g></svg>